<svg width="221" height="27" viewBox="0 0 221 27" fill="none" xmlns="http://www.w3.org/2000/svg">
<path d="M13.0454 19.0857V16.5477L3.29569 12.4977L13.0454 8.39367V5.85567L0.796455 11.2287V13.7127L13.0454 19.0857ZM16.366 22.0557L22.875 2.96667H20.3483L13.8393 22.0557H16.366ZM35.9232 13.7127V11.2287L23.6742 5.85567V8.39367L33.424 12.4977L23.6742 16.5477V19.0857L35.9232 13.7127Z" fill="white"/>
<path d="M53.3043 21.8396C56.5451 21.8396 58.7422 20.3276 60.2802 18.2486L58.3577 17.2226C57.3141 18.7346 55.3916 19.8416 53.3043 19.8416C49.2946 19.8416 46.2461 16.7906 46.2461 12.5246C46.2461 8.20459 49.2946 5.20759 53.3043 5.20759C55.3916 5.20759 57.3141 6.28759 58.3577 7.82659L60.2528 6.77359C58.7972 4.72159 56.5451 3.20959 53.3043 3.20959C48.0312 3.20959 43.8842 6.98959 43.8842 12.5246C43.8842 18.0596 48.0312 21.8396 53.3043 21.8396ZM71.5345 21.8396C76.9449 21.8396 80.6526 17.8436 80.6526 12.5246C80.6526 7.20559 76.9449 3.20959 71.5345 3.20959C66.1241 3.20959 62.4439 7.20559 62.4439 12.5246C62.4439 17.8436 66.1241 21.8396 71.5345 21.8396ZM71.5345 19.8416C67.4149 19.8416 64.8058 16.7096 64.8058 12.5246C64.8058 8.31259 67.4149 5.20759 71.5345 5.20759C75.6266 5.20759 78.2906 8.31259 78.2906 12.5246C78.2906 16.7096 75.6266 19.8416 71.5345 19.8416ZM90.4478 21.5156C96.1599 21.5156 99.8405 17.6546 99.8405 12.5246C99.8405 7.42159 96.1599 3.50659 90.4478 3.50659H84.186V21.5156H90.4478ZM90.4478 19.5176H86.4655V5.5046H90.4478C94.9794 5.5046 97.4786 8.63659 97.4786 12.5246C97.4786 16.3856 94.897 19.5176 90.4478 19.5176ZM105.696 21.5156V3.50659H103.416V21.5156H105.696ZM125.147 21.5156V3.50659H122.868V17.5736L112.322 3.50659H109.987V21.5156H112.267V7.15159L122.95 21.5156H125.147ZM138.11 21.8666C141.104 21.8666 143.603 20.6246 145.306 18.7346V12.2546H136.737V14.2526H143.054V17.8976C142.12 18.8156 140.308 19.8416 138.11 19.8416C134.101 19.8416 131.052 16.7906 131.052 12.5246C131.052 8.20459 134.101 5.20759 138.11 5.20759C140.308 5.20759 142.257 6.23359 143.411 7.6916L145.224 6.55759C143.631 4.61359 141.379 3.20959 138.11 3.20959C132.892 3.20959 128.69 6.90859 128.69 12.5246C128.69 18.1136 132.892 21.8666 138.11 21.8666ZM163.539 21.5156L159.392 14.6576C161.369 14.1986 163.429 12.4706 163.429 9.31159C163.429 5.9636 161.067 3.50659 157.25 3.50659H148.681V21.5156H152.581V15.1166H155.437L159.035 21.5156H163.539ZM156.701 11.7416H152.581V6.88159H156.701C158.239 6.88159 159.42 7.79959 159.42 9.28459C159.42 10.8236 158.239 11.7416 156.701 11.7416ZM183.412 21.5156L176.353 3.50659H171.465L164.406 21.5156H168.828L169.982 18.4646H177.836L178.99 21.5156H183.412ZM176.765 15.0896H171.053L173.909 7.34059L176.765 15.0896ZM201.499 21.5156V3.50659H197.599V14.8196L189.113 3.50659H185.103V21.5156H189.003V9.77059L197.737 21.5156H201.499ZM220.793 21.5156L213.021 11.9576L220.299 3.50659H215.493L209.011 11.5256V3.50659H205.111V21.5156H209.011V15.9806L210.439 14.2796L215.987 21.5156H220.793Z" fill="white"/>
</svg>
